<svg xmlns="http://www.w3.org/2000/svg" viewBox="50 49.9999 195 195" width="195px" height="195px">
    <g id="Group_23546" data-name="Group 23546"
        transform="matrix(1, 0, 0, 1, -1273.9169921875, -5118.405761718749)">
        <circle id="Ellipse_154" data-name="Ellipse 154" cx="97.5" cy="97.5" r="97.5"
            transform="translate(1323.917 5168.406)" fill="none"></circle>
        <g id="Group_23545" data-name="Group 23545">
            <path id="Diem_logo"
                d="M104.629,97.3a70.033,70.033,0,0,0,7.7-10.953l-13.007-6.5A40.661,40.661,0,0,1,92.478,88.4a21.077,21.077,0,0,1-11.467,5.819C73.48,95.249,68,92.853,60.3,87.89c-8.044-5.134-17.286-11.125-30.464-9.413C21.965,79.5,14.605,83.611,8.1,90.8A70.032,70.032,0,0,0,.4,101.753l13.007,6.5A40.66,40.66,0,0,1,20.253,99.7,21.077,21.077,0,0,1,31.72,93.88a20.713,20.713,0,0,1,3.252-.171c5.99,0,10.782,2.4,17.457,6.5,7.531,4.963,17.115,10.953,30.464,9.242C91.109,108.428,98.468,104.32,104.629,97.3Zm0-38.851a70.033,70.033,0,0,0,7.7-10.953L99.324,41a40.661,40.661,0,0,1-6.846,8.557,21.077,21.077,0,0,1-11.467,5.819C73.48,56.4,68,54,60.3,49.04c-8.215-5.134-17.457-11.125-30.464-9.413C21.965,40.653,14.605,44.761,8.1,51.949A70.032,70.032,0,0,0,.4,62.9l13.007,6.5a40.661,40.661,0,0,1,6.846-8.557A21.077,21.077,0,0,1,31.72,55.03a20.713,20.713,0,0,1,3.252-.171c5.99,0,10.782,2.4,17.457,6.5C59.96,66.325,69.544,72.316,82.894,70.6a35.1,35.1,0,0,0,21.736-12.151Zm0-39.022a70.033,70.033,0,0,0,7.7-10.953l-13.007-6.5a40.661,40.661,0,0,1-6.846,8.557A21.077,21.077,0,0,1,81.011,16.35C73.48,17.377,68,14.981,60.3,10.018,52.258,4.883,43.016-.936,29.838.6,21.965,1.632,14.605,5.739,8.1,12.927A70.033,70.033,0,0,0,.4,23.881l13.007,6.5a40.661,40.661,0,0,1,6.846-8.557A21.077,21.077,0,0,1,31.72,16.008a20.713,20.713,0,0,1,3.252-.171c5.99,0,10.782,2.4,17.457,6.5C59.96,27.3,69.544,33.294,82.894,31.582,91.109,30.556,98.468,26.448,104.629,19.431Z"
                transform="translate(1365.517 5211.051)" opacity="0.74" fill="#42318C"></path>
            <path id="Diem_logo-2" data-name="Diem_logo"
                d="M104.629,97.3a70.033,70.033,0,0,0,7.7-10.953l-13.007-6.5A40.661,40.661,0,0,1,92.478,88.4a21.077,21.077,0,0,1-11.467,5.819C73.48,95.249,68,92.853,60.3,87.89c-8.044-5.134-17.286-11.125-30.464-9.413C21.965,79.5,14.605,83.611,8.1,90.8A70.032,70.032,0,0,0,.4,101.753l13.007,6.5A40.66,40.66,0,0,1,20.253,99.7,21.077,21.077,0,0,1,31.72,93.88a20.713,20.713,0,0,1,3.252-.171c5.99,0,10.782,2.4,17.457,6.5,7.531,4.963,17.115,10.953,30.464,9.242C91.109,108.428,98.468,104.32,104.629,97.3Zm0-38.851a70.033,70.033,0,0,0,7.7-10.953L99.324,41a40.661,40.661,0,0,1-6.846,8.557,21.077,21.077,0,0,1-11.467,5.819C73.48,56.4,68,54,60.3,49.04c-8.215-5.134-17.457-11.125-30.464-9.413C21.965,40.653,14.605,44.761,8.1,51.949A70.032,70.032,0,0,0,.4,62.9l13.007,6.5a40.661,40.661,0,0,1,6.846-8.557A21.077,21.077,0,0,1,31.72,55.03a20.713,20.713,0,0,1,3.252-.171c5.99,0,10.782,2.4,17.457,6.5C59.96,66.325,69.544,72.316,82.894,70.6a35.1,35.1,0,0,0,21.736-12.151Zm0-39.022a70.033,70.033,0,0,0,7.7-10.953l-13.007-6.5a40.661,40.661,0,0,1-6.846,8.557A21.077,21.077,0,0,1,81.011,16.35C73.48,17.377,68,14.981,60.3,10.018,52.258,4.883,43.016-.936,29.838.6,21.965,1.632,14.605,5.739,8.1,12.927A70.033,70.033,0,0,0,.4,23.881l13.007,6.5a40.661,40.661,0,0,1,6.846-8.557A21.077,21.077,0,0,1,31.72,16.008a20.713,20.713,0,0,1,3.252-.171c5.99,0,10.782,2.4,17.457,6.5C59.96,27.3,69.544,33.294,82.894,31.582,91.109,30.556,98.468,26.448,104.629,19.431Z"
                transform="translate(1365.516 5211.053)" fill="#42318C"></path>
        </g>
    </g>
</svg>